# xmcd
#
# Track frame offsets:
#	182
#	14270
#	28480
#	45902
#	60190
#	72910
#	88725
#	101870
#	116462
#	134242
#
# Disc length: 2006 seconds
#
# Revision: 5
# Processed by: cddbd v1.5.2PL0 Copyright (c) Steve Scherf et al.
# Submitted via: dBpowerAMP V4.0
#
DISCID=8807d40a
DTITLE=Various Artist - Hot Country Hits of the 90's - Volume 3
DYEAR=1994
DGENRE=Country
TTITLE0=McBride and The Ride - Love on the Loose, Heart on the Run
TTITLE1=Suzy Bogguss - Drive South
TTITLE2=Dan Seals - Love On Arrival
TTITLE3=Mark Collie - Born To Love You
TTITLE4=George Jones - I Don't need Your Rockin Chair
TTITLE5=Tayna Tucker - Down to my Last Teardrop
TTITLE6=Sammy Kershaw - She Don't Know She's Beautiful
TTITLE7=Eddie Rabbitt - American Boy
TTITLE8=Suzy Bogguss - Someday Soon
TTITLE9=Billy Dean - Trying to Hide A Fire in the Dark
EXTD=
EXTT0=
EXTT1=
EXTT2=
EXTT3=
EXTT4=
EXTT5=
EXTT6=
EXTT7=
EXTT8=
EXTT9=
PLAYORDER=
